<svg width="79" height="14" viewBox="0 0 79 14" fill="none" xmlns="http://www.w3.org/2000/svg">
<path d="M11.9507 1.21566C11.1644 0.625084 10.0208 0.347168 8.55553 0.347168H3.26622C3.12327 0.347168 2.98031 0.381905 2.8731 0.486124C2.76588 0.590343 2.69442 0.694561 2.65868 0.833519L0.0140196 13.305C-0.0217189 13.444 0.014024 13.5482 0.0855009 13.6524C0.156978 13.7566 0.264189 13.7914 0.371404 13.7914H3.01606C3.15902 13.7914 3.30196 13.7566 3.40918 13.6524C3.51639 13.5482 3.58787 13.444 3.62361 13.305L4.51707 9.10153H6.37548L7.62632 13.2703C7.73354 13.6177 7.94797 13.7914 8.30535 13.7914H11.0215C11.1287 13.7914 11.2359 13.7566 11.3431 13.6871C11.4503 13.6177 11.4861 13.5135 11.5218 13.4092C11.5218 13.3745 11.5218 13.305 11.4861 13.2008L9.87784 8.51096C10.6998 8.16356 11.3789 7.6772 11.9149 7.05189C12.451 6.42658 12.8441 5.66232 13.0228 4.75909C13.0943 4.37696 13.13 4.02956 13.13 3.71691C13.1658 2.60524 12.7727 1.77149 11.9507 1.21566ZM9.30603 4.72435C9.19881 5.2107 8.98438 5.59283 8.627 5.87075C8.26961 6.14867 7.84076 6.28763 7.26894 6.28763H5.12463L5.80366 3.12633H7.94797C8.41257 3.12633 8.76995 3.23055 8.98438 3.43898C9.19881 3.64742 9.34177 3.92534 9.34177 4.30747C9.34177 4.48117 9.34177 4.62013 9.30603 4.72435Z" fill="white"/>
<path d="M19.0983 0.347168H16.3464C16.2034 0.347168 16.0962 0.381905 15.9533 0.486124C15.8461 0.590343 15.7746 0.694561 15.7388 0.833519L13.0585 13.305C13.0227 13.444 13.0585 13.5482 13.1299 13.6524C13.2014 13.7566 13.3086 13.7914 13.4516 13.7914H16.2034C16.3464 13.7914 16.4536 13.7566 16.5608 13.6524C16.668 13.5482 16.7395 13.444 16.7753 13.305L19.4557 0.833519C19.4914 0.694561 19.4556 0.590343 19.3842 0.486124C19.3127 0.381905 19.2055 0.347168 19.0983 0.347168Z" fill="white"/>
<path d="M29.9983 0.660179C29.212 0.312784 28.3185 0.173828 27.3179 0.173828C25.4595 0.173828 23.9585 0.625438 22.8506 1.49393C21.7427 2.39715 20.9564 3.71726 20.5276 5.45424C20.2774 6.42695 20.0272 7.5386 19.8128 8.78923C19.7413 9.2061 19.7056 9.5535 19.7056 9.79668C19.7056 10.6999 19.92 11.4642 20.3846 12.0895C20.8492 12.7148 21.4568 13.2011 22.2787 13.5138C23.065 13.8265 23.9585 14.0002 24.9591 14.0002C26.8175 14.0002 28.3185 13.5833 29.4264 12.7148C30.5343 11.8463 31.3206 10.5262 31.7494 8.78923C32.0353 7.60808 32.2855 6.49643 32.4642 5.45424C32.5357 5.07211 32.5714 4.75944 32.5714 4.48153C32.5714 3.5783 32.357 2.7793 31.8924 2.15399C31.4278 1.52867 30.8202 0.972835 29.9983 0.660179ZM28.7474 5.48897C28.5687 6.42694 28.3543 7.46913 28.0684 8.65027C27.8539 9.48402 27.5323 10.1093 27.032 10.4915C26.5674 10.9083 25.9598 11.082 25.2808 11.082C24.1014 11.082 23.4938 10.5262 23.4938 9.41454C23.4938 9.13663 23.5296 8.89344 23.5653 8.61553C23.8155 7.33017 24.0299 6.28799 24.2444 5.45424C24.4588 4.62049 24.7804 3.99517 25.2808 3.61304C25.7811 3.2309 26.3529 3.02247 27.032 3.02247C28.2113 3.02247 28.7831 3.5783 28.7831 4.68997C28.8189 4.96788 28.7831 5.24579 28.7474 5.48897Z" fill="white"/>
<path d="M48.8684 0.486198C48.797 0.381979 48.6897 0.347242 48.5468 0.347242H46.3667C46.188 0.347242 46.0451 0.381979 45.9021 0.486198C45.7592 0.590416 45.6877 0.659902 45.6162 0.76412L41.0417 6.66984L38.9689 0.76412C38.9331 0.659902 38.8617 0.555675 38.7544 0.451456C38.6472 0.381977 38.54 0.3125 38.3613 0.3125H36.1813C36.0383 0.3125 35.8954 0.347237 35.7881 0.451456C35.6809 0.555675 35.6094 0.659893 35.5737 0.798851L32.9291 13.2703C32.8933 13.4093 32.9291 13.5135 33.0005 13.6177C33.072 13.722 33.1792 13.7567 33.3222 13.7567H35.7524C35.8954 13.7567 36.0026 13.722 36.1098 13.6177C36.217 13.5135 36.2885 13.4093 36.3242 13.2703L37.8252 6.21822L39.1476 10.0743C39.2548 10.3522 39.4335 10.5259 39.7194 10.5259H40.7558C41.0417 10.5259 41.2919 10.387 41.542 10.0743L44.3654 6.39192L42.9001 13.2703C42.8644 13.4093 42.9001 13.5135 42.9716 13.6177C43.0431 13.722 43.1503 13.7567 43.2932 13.7567H45.7234C45.8664 13.7567 45.9736 13.722 46.1166 13.6177C46.2238 13.5135 46.2953 13.4093 46.331 13.2703L49.0114 0.798851C48.9756 0.694633 48.9399 0.590416 48.8684 0.486198Z" fill="white"/>
<path d="M52.3351 9.97021H49.8334C49.6905 9.97021 49.5833 10.005 49.4403 10.1092C49.3331 10.2134 49.2616 10.3176 49.2259 10.4566L48.6898 12.9578C48.6541 13.0968 48.6898 13.201 48.7613 13.3052C48.8328 13.4094 48.94 13.4442 49.0829 13.4442H51.5846C51.7276 13.4442 51.8348 13.4094 51.9777 13.3052C52.1207 13.201 52.1564 13.0968 52.1922 12.9578L52.7282 10.4566C52.764 10.3176 52.7283 10.2134 52.6568 10.1092C52.5853 10.005 52.4781 9.97021 52.3351 9.97021Z" fill="white"/>
<path d="M61.4842 6.77434L67.2024 0.799135C67.2739 0.729656 67.3096 0.625442 67.3096 0.521223C67.3096 0.417005 67.2739 0.347522 67.2381 0.278042C67.1667 0.208563 67.0952 0.173828 66.988 0.173828H64.0217C63.6643 0.173828 63.4141 0.312788 63.1997 0.555965L59.1255 4.72471L59.9832 0.660179C60.0189 0.521221 59.9832 0.417003 59.9117 0.312784C59.8403 0.208566 59.733 0.173828 59.5901 0.173828H57.0527C56.9097 0.173828 56.8025 0.208566 56.6953 0.312784C56.5881 0.417003 56.5166 0.521221 56.4808 0.660179L53.8719 12.958C53.8362 13.0969 53.8719 13.2011 53.9434 13.3054C54.0149 13.4096 54.1221 13.4443 54.265 13.4443H56.8025C56.9454 13.4443 57.0527 13.4096 57.1599 13.3054C57.2671 13.2011 57.3386 13.0969 57.3743 12.958L58.375 8.37236L61.0911 13.0622C61.2341 13.3054 61.4485 13.4443 61.7701 13.4443H64.5935C64.7007 13.4443 64.8079 13.4096 64.9151 13.3054C65.0223 13.2011 65.0581 13.1317 65.0581 12.9927C65.0581 12.958 65.0223 12.8885 64.9866 12.819L61.4842 6.77434Z" fill="white"/>
<path d="M78.4245 1.77172C78.0314 1.25063 77.4595 0.799007 76.6733 0.486351C75.887 0.173696 74.9221 0 73.8142 0C71.9915 0 70.4905 0.45161 69.2397 1.3201C67.9888 2.18859 67.1668 3.43921 66.7737 5.03723C66.4878 6.32259 66.2377 7.469 66.0232 8.51118C65.9517 8.92806 65.916 9.31019 65.916 9.69233C65.916 10.9777 66.3449 11.9504 67.2026 12.6452C68.0603 13.34 69.2754 13.6526 70.8837 13.6526C72.0988 13.6526 73.2067 13.4442 74.2073 13.0273C75.208 12.6104 76.03 12.0199 76.709 11.2556C77.3881 10.4913 77.8169 9.55337 78.0313 8.47644L78.496 6.28786C78.5317 6.1489 78.496 6.04468 78.4245 5.94046C78.353 5.83624 78.2458 5.80151 78.1028 5.80151H73.3496C73.2067 5.80151 73.0995 5.83624 72.9565 5.94046C72.8493 6.04468 72.7778 6.1489 72.7421 6.28786L72.4562 7.74691C72.4204 7.88587 72.4204 7.99009 72.4919 8.09431C72.5634 8.19852 72.6706 8.23327 72.8135 8.23327H74.529L74.4575 8.58067C74.3145 9.3102 73.9572 9.86603 73.4568 10.2482C72.9565 10.6303 72.3132 10.804 71.5984 10.804C70.3476 10.804 69.7043 10.2482 69.7043 9.10176C69.7043 8.9628 69.74 8.71963 69.7758 8.40697C70.0259 7.15635 70.2404 6.07941 70.4905 5.14145C70.8837 3.61291 71.7771 2.88338 73.2424 2.88338C73.85 2.88338 74.2788 3.02234 74.5647 3.26551C74.8506 3.50869 75.0293 3.82135 75.1008 4.16874C75.1365 4.27296 75.1723 4.3077 75.2438 4.37718C75.3152 4.41192 75.3867 4.44666 75.5297 4.44666H78.4602C78.5674 4.44666 78.6747 4.41192 78.7819 4.3077C78.8891 4.23822 78.9248 4.13401 78.9606 4.02979C78.9963 3.92557 78.9963 3.75187 78.9963 3.54344C79.032 2.88338 78.8176 2.32755 78.4245 1.77172Z" fill="white"/>
</svg>
